<?xml version="1.0" standalone="no"?><!DOCTYPE svg PUBLIC "-//W3C//DTD SVG 1.1//EN" "http://www.w3.org/Graphics/SVG/1.1/DTD/svg11.dtd"><svg t="1757479553361" class="icon" viewBox="0 0 1024 1024" version="1.1" xmlns="http://www.w3.org/2000/svg" p-id="50898" xmlns:xlink="http://www.w3.org/1999/xlink" width="200" height="200"><path d="M512 0C229.216 0 0 229.216 0 512s229.216 512 512 512 512-229.216 512-512S794.784 0 512 0zM256 256h512c9.152 0 18.016 1.952 26.144 5.664L512 590.816 229.856 261.632c8.128-3.712 16.992-5.664 26.144-5.664zM192 704V320c0-1.344 0.064-2.688 0.128-4l187.648 218.944-185.6 185.6A63.456 63.456 0 0 1 191.968 704z m576 64H256c-5.664 0-11.2-0.768-16.544-2.208l182.112-182.112L512 689.184l90.432-105.504 182.112 182.112c-5.344 1.44-10.88 2.208-16.544 2.208z m64-64c0 5.664-0.768 11.2-2.208 16.544l-185.6-185.6 187.68-218.944c0.096 1.312 0.128 2.656 0.128 4v384z" p-id="50899"></path></svg>