<?xml version="1.0" standalone="no"?><!DOCTYPE svg PUBLIC "-//W3C//DTD SVG 1.1//EN" "http://www.w3.org/Graphics/SVG/1.1/DTD/svg11.dtd"><svg t="1757479748182" class="icon" viewBox="0 0 1024 1024" version="1.1" xmlns="http://www.w3.org/2000/svg" p-id="56559" xmlns:xlink="http://www.w3.org/1999/xlink" width="200" height="200"><path d="M959.26 495.78c0.1 0 0.2 0.01 0.3 0.02 0-4.2 0.02-8.4-0.01-12.6-0.65-2.37-0.31-4.79-0.42-7.19-0.31-1.17 0.28-2.37-0.03-3.54-0.27-1.42-0.45-2.84-0.4-4.28 0.03-6.76-0.18-13.55-1.12-20.22-8.16-57.78-26.99-111.9-56.27-162.35-24.02-41.38-54.16-77.79-89.73-109.75-28.87-25.93-60.67-47.59-95.16-65.27-28.07-14.39-57.39-25.66-87.9-33.73-17.86-4.73-35.91-8.57-54.27-10.91-1.27-0.25-2.53-0.21-3.77-0.17-11.27-0.36-22.54-1.38-33.84-1.34-0.18-0.01-0.35-0.01-0.53-0.02l0.03 0.33c-3.55 0.19-7.11 0.42-10.56-0.75h-26.22c-3.46 1.16-7.02 0.95-10.57 0.74l0.03-0.3c-2.5 0.01-5-0.03-7.5 0.02-2.08 0.69-4.23 0.19-6.33 0.42-1.43 0.05-2.87-0.08-4.31 0.04-1.52 0.31-3.05 0.47-4.61 0.39-1.29-0.27-2.62 0.46-3.88 0.01-1.2-0.55-2.5 0.34-3.74 0.06-3.72 0.62-7.5 0.46-11.21 0.98-24.28 3.45-48.1 8.97-71.45 16.43-42.9 13.7-82.86 33.37-119.85 59.09-31.85 22.15-60.47 47.89-85.66 77.38-26.06 30.5-47.63 63.9-64.86 100.18-15.2 32.02-26.28 65.36-33.65 99.97-3.6 16.92-6.33 33.97-6.42 51.34 0.05 2.01 0.03 4.02-0.39 6 0.1 2.2-0.09 4.41-0.05 6.62-0.01 0.91-0.03 1.81-0.04 2.72l0.78-2.55c0.25 5.34-0.29 10.59-1.62 15.77v20.98c2.04 5.74 1.87 11.68 1.65 17.64-0.25-1.1-0.51-2.2-0.76-3.31 0 0.78 0 1.56-0.01 2.33 0.03 4.62 0.24 9.23 0.3 13.83 0.32 24.22 4.85 47.81 10.75 71.14 8.89 35.15 21.89 68.74 39 100.76 23.97 44.85 54.51 84.53 91.89 119.03 20.83 19.22 43.06 36.52 67.12 51.48 34.82 21.65 71.84 38.39 111.16 50.1 21.41 6.37 43.27 10.53 65.23 14.25 1.51 0.3 3.05 0.21 4.58 0.26 6.54 0.41 13.09 0.79 19.65 0.87 2.21 0.13 4.43-0.18 6.62 0.4 5.77-0.31 11.5 0.63 17.27 0.48v-0.41c9.05 0 18.09 0.01 27.14 0.02 0 0.13 0 0.26-0.01 0.39 1.14 0 2.29 0.04 3.43-0.07 0.73-0.18 1.47-0.28 2.21-0.34-0.74-0.03-1.49-0.06-2.24-0.1 3.18-0.95 6.43-0.83 9.68-0.68-1.38 0.45-2.77 0.66-4.17 0.75 1.38 0.04 2.76 0.1 4.13 0 1.95 0.02 3.9-0.04 5.86-0.03 1.7-0.33 3.42-0.52 5.17-0.4 17.02 0 33.78-2.34 50.41-5.71 45.13-9.14 87.93-24.62 128.37-46.74 47.15-25.79 88.06-59.31 123.38-99.63 27.78-31.71 50.62-66.76 68.29-105.12 25.46-55.3 40.73-112.88 39.49-174.17-0.11 0-0.21 0.02-0.32 0.02v-31.56z m-893.4-19.11c-0.2-2.11-0.05-4.19 0.67-6.21 0.2 2.11 0.07 4.19-0.67 6.21z m291.88 238.55c-14.85-0.03-29.7-0.11-44.55-0.17-0.94-1.42-0.9-3.04-0.92-4.64-0.03-1.89-0.02-3.78-0.02-5.68V351.44c0-1.6-0.01-3.2 0-4.8 0.07-5.84 0.48-6.34 6.14-6.36 14.27-0.04 28.53-0.02 42.8 0 1.74 0 3.51-0.06 5.1 0.88 0.07 2.33 0.2 4.65 0.2 6.98 0.01 119.4 0 238.8 0 358.2 0 9.36 0.4 8.9-8.76 8.88z m16.73-448.39c-2.4 16.35-13.75 28.02-29.83 30.65-3.24 1.08-6.48 1.11-9.72 0.06-18.09-2.56-30.83-17.35-30.63-35.57 0.19-17.58 13.54-32.39 31-34.38 17.88-2.04 34.23 9.42 38.52 27.01 0.27 1.13 0.42 2.28 0.63 3.43 0.99 2.93 1.01 5.87 0.03 8.8zM573.65 68.28c-1.25 0.08-2.44-0.14-3.58-0.63 1.25-0.08 2.44 0.17 3.58 0.63z m-92.61-3.3c-2.02 0.7-4.1 0.84-6.21 0.64 2.02-0.73 4.1-0.86 6.21-0.64z m-10.52 0.89c-1.44 0.56-2.93 0.76-4.47 0.61 1.44-0.56 2.93-0.75 4.47-0.61z m-8.73 0.88c-1.15 0.48-2.35 0.7-3.6 0.61 1.15-0.48 2.35-0.7 3.6-0.61z m-11.45 888.08c1.24-0.07 2.44 0.15 3.58 0.64-1.25 0.08-2.43-0.16-3.58-0.64z m24.44 2.63c2.11-0.19 4.18-0.07 6.19 0.65-2.11 0.22-4.18 0.07-6.19-0.65z m69.91 0.67c1.73-0.62 3.52-0.78 5.34-0.59-1.73 0.65-3.52 0.79-5.34 0.59z m244.97-418.5c-1.12 22.82-6.54 44.64-16.25 65.25-25.91 55.03-69.11 89.11-127.69 104.19-11.01 2.83-22.2 4.69-33.57 5.39h-0.02c-2.3 0.8-4.66 0.87-7.05 0.64l-6.15 0.27c-0.32 0.15-0.66 0.23-0.99 0.28-1.94 0.47-3.93 0.45-5.92 0.45H451.99c-2.08 0-4.18 0.09-6.15-0.67-0.23 0.2-0.46 0.1-0.69-0.3-0.02-2.48-0.05-4.95-0.05-7.43V350.35c0-1.46-0.02-2.91 0.01-4.37 0.04-1.77 0.13-2.97 0.44-3.81 0.09-1.16 0.45-1.46 1.65-1.52 0.86-0.27 2.08-0.35 3.82-0.39h1.31c46.89 0 93.78 0 140.67 0.02 2.44 0 4.89-0.1 7.29 0.37 0.47 0.05 0.93 0.15 1.38 0.34 38.91 1.25 75.51 10.51 108.18 32.32 41.2 27.5 65.56 66.45 76.08 114.45 1.97 8.96 3.35 18.03 3.67 27.23a80.78 80.78 0 0 1 0.04 24.64z m168.45-67.39a9.727 9.727 0 0 1-0.61-4.47c0.56 1.44 0.76 2.93 0.61 4.47z m0.92 10.57c-0.78-2.31-0.87-4.68-0.66-7.08 0.81 2.31 0.87 4.68 0.66 7.08z" p-id="56560"></path><path d="M960 495.83c-0.15-0.02-0.29-0.02-0.44-0.03v30.25c0.01 0.43 0.01 0.85 0.02 1.27 0.14 0 0.28 0 0.42-0.03v-31.47z" p-id="56561"></path><path d="M959.56 496.03v-0.23c-0.1 0-0.2-0.02-0.3-0.02v31.56c0.11 0 0.21-0.01 0.32-0.02 0-0.43 0-0.85-0.02-1.27v-30.02zM498.57 959.56h-0.13v0.44h27.11c0-0.15 0-0.29 0.01-0.44h-26.99z" p-id="56562"></path><path d="M498.43 959.16v0.41H525.55c0-0.13 0-0.26 0.01-0.39-9.05 0-18.09-0.01-27.14-0.02zM64 520.3v10.49c0.29 1.28 0.59 2.56 0.88 3.84 0.02-4.8 0-9.59-0.88-14.33z" p-id="56563"></path><path d="M64 520.3c0.88 4.74 0.91 9.53 0.88 14.33 0.25 1.1 0.51 2.2 0.76 3.31 0.22-5.95 0.4-11.9-1.65-17.64zM64 488.84v10.49c0.64-4.38 0.77-8.8 0.83-13.22-0.28 0.91-0.56 1.82-0.83 2.73z" p-id="56564"></path><path d="M65.62 483.56l-0.78 2.55c-0.07 4.42-0.19 8.83-0.83 13.22a53.015 53.015 0 0 0 1.62-15.77zM499.32 64h-10.49c-0.02 0.15-0.03 0.29-0.05 0.44h0.04c3.49-0.27 7.03 0.55 10.5-0.44z" p-id="56565"></path><path d="M499.32 64c-3.46 0.99-7 0.17-10.5 0.44h-0.04l-0.03 0.3c3.56 0.21 7.11 0.42 10.57-0.74zM536.08 64.42c-0.01-0.14-0.03-0.28-0.04-0.42h-10.49c3.48 0.87 7.02 0.29 10.53 0.42z" p-id="56566"></path><path d="M536.11 64.75l-0.03-0.33c-3.51-0.13-7.05 0.45-10.53-0.42 3.46 1.17 7.01 0.94 10.56 0.75zM445.86 715.44c-0.23-0.09-0.46-0.18-0.69-0.3 0.23 0.4 0.46 0.5 0.69 0.3z" p-id="56567"></path><path d="M445.58 710.65c-0.02-121.6-0.02-243.19 0-364.79 0-1.74-0.06-2.9 0-3.67-0.31 0.84-0.4 2.04-0.44 3.81-0.03 1.46-0.01 2.91-0.01 4.37v357.35c0 2.48 0.03 4.95 0.05 7.43h0.64c-0.52-1.46-0.23-2.99-0.23-4.48zM450.59 340.68c48.78-0.02 97.57-0.02 146.35 0 1.12 0 2.25-0.15 3.37-0.02-2.4-0.48-4.85-0.37-7.29-0.37-46.89-0.02-93.78-0.02-140.67-0.02h-1.31c-1.74 0.04-2.96 0.12-3.82 0.39 0.75-0.04 1.81 0.02 3.36 0.01z" p-id="56568"></path><path d="M445.57 345.86c-0.01 121.6-0.01 243.19 0 364.79 0 1.49-0.29 3.02 0.23 4.48h0.28c-0.03-2.04-0.09-4.08-0.09-6.12V349.79c0-8.62 0.04-8.66 8.87-8.66 47.05 0 94.1 0.01 141.15 0.01 1.89 0 3.78-0.1 5.68-0.15-0.46-0.14-0.92-0.25-1.38-0.34-1.12-0.13-2.25 0.02-3.37 0.02-48.78-0.02-97.57-0.02-146.35 0-1.55 0-2.61-0.05-3.36-0.01-0.86 0.27-1.36 0.73-1.65 1.52-0.06 0.78 0 1.93 0 3.67zM313.22 714.31c-0.03-2.48-0.09-4.95-0.09-7.43v-355.6c0-1.89-0.06-3.79 0.08-5.68 0.23-3.23 1.11-4.08 4.24-4.4 0.58-0.06 1.16-0.06 1.75-0.06 15.43 0.02 30.87 0.05 46.3 0.08l0.79-0.06c-1.59-0.94-3.36-0.88-5.1-0.88-14.27-0.01-28.53-0.04-42.8 0-5.65 0.02-6.07 0.51-6.14 6.36-0.02 1.6 0 3.2 0 4.8v353.29c0 1.89 0 3.78 0.02 5.68 0.02 1.6-0.02 3.22 0.92 4.64l0.03-0.76z" p-id="56569"></path><path d="M366.49 348.15c0-2.33-0.13-4.65-0.2-6.98-0.23 0.28-0.5 0.52-0.78 0.74 0.03 2.1 0.06 4.21 0.06 6.31v355.93c0 1.6 0.03 3.2-0.04 4.8-0.19 4.25-1.05 5.12-5.15 5.37-0.58 0.04-1.16 0.03-1.75 0.03-14.91-0.01-29.81-0.03-44.72-0.05-0.22 0.27-0.45 0.53-0.73 0.75 14.85 0.06 29.7 0.13 44.55 0.17 9.16 0.02 8.76 0.48 8.76-8.88v-358.2z" p-id="56570"></path><path d="M365.5 341.23v0.68c0.28-0.22 0.55-0.46 0.78-0.74l-0.79 0.06zM313.92 714.31h-0.7c0 0.25-0.02 0.5-0.03 0.75 0.27-0.22 0.51-0.48 0.73-0.75zM595.5 715.67c-48.72 0.01-97.43 0.01-146.15 0-1.15 0-2.33 0.2-3.45-0.27v-0.01c-0.01 0.01-0.03 0.04-0.04 0.05 1.98 0.76 4.07 0.67 6.15 0.67h140.03c1.99 0 3.98 0.02 5.92-0.45-0.81 0.12-1.64 0.01-2.45 0.01z" p-id="56571"></path><path d="M594.15 715.23H453.52c-2.47 0-4.95-0.07-7.42-0.11-0.06 0.11-0.13 0.19-0.19 0.25v0.01c1.12 0.47 2.3 0.27 3.45 0.27 48.72 0.01 97.43 0.01 146.15 0 0.81 0 1.64 0.11 2.45-0.01 0.33-0.08 0.66-0.17 0.99-0.28-1.6-0.05-3.2-0.14-4.8-0.14zM445.9 715.38c-0.04-0.08-0.06-0.17-0.09-0.25h-0.64c0.23 0.11 0.46 0.21 0.69 0.3 0.01-0.01 0.03-0.04 0.04-0.05z" p-id="56572"></path><path d="M445.9 715.38c0.06-0.07 0.13-0.14 0.19-0.25h-0.28c0.03 0.08 0.05 0.17 0.09 0.25zM789.67 539.63a80.781 80.781 0 0 0-0.04-24.64c0.59 8.21 0.54 16.42 0.04 24.64z" p-id="56573"></path><path d="M789.63 514.99c0.01 8.21 0.03 16.43 0.04 24.64 0.5-8.21 0.56-16.43-0.04-24.64zM334.92 297.55c3.25 1.06 6.49 1.03 9.72-0.06-3.24 0.59-6.48 0.48-9.72 0.06z" p-id="56574"></path><path d="M334.92 297.55c3.24 0.43 6.49 0.53 9.72-0.06l-9.73 0.06zM531.2 959.16c1.1 0.04 2.19 0.04 3.28-0.03-1.09-0.03-2.19-0.05-3.28 0.03z" p-id="56575"></path><path d="M528.97 959.06c0.75 0.04 1.49 0.07 2.24 0.1 1.09-0.08 2.18-0.06 3.28-0.03 1.4-0.09 2.79-0.3 4.17-0.75-3.25-0.15-6.5-0.27-9.68 0.68zM374.47 266.84c0.98-2.94 0.96-5.87-0.03-8.8 0.54 2.93 0.48 5.87 0.03 8.8z" p-id="56576"></path><path d="M374.44 258.03l0.03 8.81c0.44-2.94 0.51-5.87-0.03-8.8zM959.03 482.81c0.2-2.4 0.15-4.78-0.66-7.08-0.2 2.4-0.12 4.78 0.66 7.08zM605.09 715.1c2.39 0.23 4.75 0.16 7.05-0.64-2.29 0.9-4.75-0.19-7.05 0.64z" p-id="56577"></path><path d="M605.09 715.1c2.29-0.83 4.76 0.26 7.05-0.64h0.02c-2.39-0.18-4.77-0.15-7.07 0.65zM65.86 476.68c0.73-2.01 0.86-4.09 0.67-6.21-0.71 2.02-0.87 4.09-0.67 6.21zM481.05 64.99c-2.12-0.22-4.2-0.09-6.21 0.64 2.11 0.2 4.19 0.06 6.21-0.64zM474.78 957.46c2.01 0.72 4.08 0.87 6.19 0.65-2.01-0.72-4.09-0.84-6.19-0.65zM544.69 958.13c1.83 0.2 3.61 0.06 5.34-0.59-1.82-0.18-3.61-0.02-5.34 0.59zM470.53 65.88c-1.54-0.14-3.03 0.05-4.47 0.61 1.54 0.15 3.03-0.05 4.47-0.61zM958.11 472.24c0.15-1.54-0.05-3.03-0.61-4.47-0.14 1.54 0.06 3.03 0.61 4.47zM573.66 68.29c-1.15-0.47-2.34-0.71-3.58-0.63 1.14 0.5 2.34 0.71 3.58 0.63zM461.79 66.76c-1.25-0.09-2.44 0.14-3.6 0.61 1.25 0.09 2.44-0.14 3.6-0.61zM453.92 955.47a7.857 7.857 0 0 0-3.58-0.64c1.15 0.48 2.33 0.72 3.58 0.64zM734.6 518.52c-0.22-7.73-1.25-15.37-2.86-22.92-9.1-42.75-33.01-73.78-73.1-91.82-18.65-8.39-38.38-12.49-58.73-13.83-2.97 0.2-5.92 0.25-8.81-0.64-30.51-0.04-61.02-0.08-91.54-0.11-0.06 2.18-0.17 4.36-0.17 6.55v263.88c0 2.18 0.08 4.37 0.12 6.55 30.14 0.03 60.28 0.06 90.43 0.1 2.18 0 4.36 0.09 6.55 0.14-0.4 0.13-0.81 0.23-1.22 0.32 0.41-0.03 0.82-0.12 1.22-0.31 8.61-0.11 17.12-1.24 25.57-2.79 22.38-4.1 43.2-12.08 61.13-26.33 32.53-25.84 48-60.51 51.42-101.22v-17.56zM498.74 391.44c0.16-0.76 0.41-1.52 0.81-2.25-0.67 0.69-0.82 1.46-0.81 2.25z" p-id="56578"></path><path d="M499.23 666.44c-0.64-1.39-0.32-2.87-0.32-4.3-0.02-89.46-0.02-178.92 0.02-268.39 0-0.75-0.17-1.54-0.18-2.31-0.38 1.78-0.28 3.62-0.28 5.44-0.01 26.64 0 53.28 0 79.92 0 60.56 0 121.12 0.01 181.67 0 2.89-0.32 5.84 0.99 8.6 0-0.19 0.02-0.37 0.03-0.56-0.08-0.03-0.17-0.04-0.25-0.08z" p-id="56579"></path><path d="M498.9 662.14c0 1.43-0.32 2.91 0.32 4.3 0.08 0.04 0.17 0.05 0.25 0.08 0-0.12 0.01-0.23 0.02-0.35-0.04-2.18-0.12-4.37-0.12-6.55V395.74c0-2.18 0.11-4.36 0.17-6.55-0.4 0.73-0.64 1.48-0.81 2.25 0.01 0.77 0.18 1.56 0.18 2.31-0.04 89.46-0.04 178.92-0.02 268.39zM593.46 666.72h-91.22c-0.78 0-1.58 0.09-2.35-0.07 0 0.15-0.15 0.29-0.43 0.43l91.42 0.03c1.47 0 2.94-0.07 4.37-0.38-0.59 0.05-1.19 0-1.78 0z" p-id="56580"></path><path d="M589.92 666.27c-30.14-0.04-60.28-0.07-90.43-0.1 0.27 0.16 0.4 0.32 0.39 0.47 0.77 0.16 1.57 0.07 2.35 0.07h91.22c0.59 0 1.19 0.05 1.78 0 0.41-0.09 0.82-0.19 1.22-0.32-2.18-0.05-4.37-0.14-6.55-0.14zM499.89 666.65c-0.14-0.03-0.27-0.08-0.41-0.13 0 0.19-0.02 0.37-0.03 0.56 0.28-0.14 0.43-0.28 0.43-0.43z" p-id="56581"></path><path d="M499.48 666.52c0.14 0.05 0.27 0.1 0.41 0.13 0-0.15-0.12-0.31-0.39-0.47 0 0.12-0.01 0.23-0.02 0.35zM734.59 536.08c1.17-5.85 1.14-11.7 0-17.55 0.5 5.85 0.51 11.7 0 17.55z" p-id="56582"></path><path d="M734.6 518.52v17.56c0.51-5.85 0.5-11.7 0-17.55zM599.91 389.95c-2.89-0.92-5.85-0.88-8.82-0.65 2.89 0.88 5.93-0.28 8.81 0.64z" p-id="56583"></path><path d="M599.91 389.95c-2.89-0.92-5.92 0.24-8.81-0.64 2.89 0.89 5.84 0.84 8.81 0.64z" p-id="56584"></path></svg>